<svg width="236" height="98" viewBox="0 0 236 98" fill="none" xmlns="http://www.w3.org/2000/svg">
<path d="M210.949 97.3V75.6H164.609V68.46L211.089 0H218.229V68.74H235.169V75.6H218.229V97.3H210.949ZM172.729 68.74H210.949V12.88L172.729 68.74Z" fill="black"/>
<path d="M140.796 85.5406C135.103 92.8206 127.403 96.4606 117.696 96.4606C107.99 96.4606 100.15 92.8206 94.1764 85.5406C88.2964 78.1673 85.3564 67.1073 85.3564 52.3606V43.2606C85.3564 27.954 88.2964 16.9406 94.1764 10.2206C100.15 3.50063 108.036 0.140625 117.836 0.140625C138.93 0.140625 149.476 14.3273 149.476 42.7006V52.5006C149.476 67.154 146.583 78.1673 140.796 85.5406ZM117.696 89.4606C125.723 89.4606 131.743 86.7073 135.756 81.2006C139.863 75.6006 141.916 66.6873 141.916 54.4606V42.2806C141.916 18.7606 133.89 7.00063 117.836 7.00063C101.503 7.00063 93.3364 18.6206 93.3364 41.8606V53.7606C93.3364 65.7073 95.4364 74.6673 99.6364 80.6406C103.836 86.5206 109.856 89.4606 117.696 89.4606Z" fill="black"/>
<path d="M46.34 97.3V75.6H0V68.46L46.48 0H53.62V68.74H70.56V75.6H53.62V97.3H46.34ZM8.12 68.74H46.34V12.88L8.12 68.74Z" fill="black"/>
</svg>
