<svg width="238" height="147" viewBox="0 0 238 147" fill="none" xmlns="http://www.w3.org/2000/svg">
<path d="M1.23438 12.9258H201.234V139.061C201.234 142.47 198.471 145.233 195.062 145.233H7.40721C3.99805 145.233 1.23438 142.47 1.23438 139.061V12.9258Z" stroke="black" stroke-width="2.46914"/>
<path d="M1.23438 13.543H201.234V7.40812C201.234 3.99895 198.471 1.23528 195.062 1.23528H7.40721C3.99805 1.23528 1.23438 3.99895 1.23438 7.40812V13.543Z" fill="#A3AED0" stroke="black" stroke-width="2.46914"/>
<circle cx="10.3756" cy="7.38687" r="2.965" fill="black"/>
<circle cx="18.9479" cy="7.38687" r="2.965" fill="black"/>
<circle cx="27.5202" cy="7.38687" r="2.965" fill="black"/>
<path d="M98.27 46.2017C99.5506 43.813 102.976 43.813 104.256 46.2017L132.752 99.3549C133.965 101.617 132.326 104.356 129.759 104.356H72.7672C70.2 104.356 68.561 101.617 69.7739 99.3549L98.27 46.2017Z" fill="#FCF18E"/>
<path fill-rule="evenodd" clip-rule="evenodd" d="M96.1861 45.247C98.3456 41.2302 104.121 41.2301 106.281 45.247L134.546 97.8248C136.591 101.629 133.827 106.234 129.499 106.234H72.9682C68.6394 106.234 65.8756 101.629 67.9209 97.8248L96.1861 45.247ZM102.124 47.4693C101.743 46.7604 100.724 46.7604 100.343 47.4693L72.0775 100.047C71.7166 100.718 72.2043 101.531 72.9682 101.531H129.499C130.263 101.531 130.75 100.718 130.389 100.047L102.124 47.4693Z" fill="black"/>
<path d="M104.968 83.992C104.968 84.4717 104.847 84.9036 104.606 85.2874C104.395 85.6393 104.124 85.9431 103.792 86.199C103.461 86.4229 103.099 86.5989 102.707 86.7268C102.315 86.8228 101.968 86.8707 101.667 86.8707C100.732 86.8707 99.9329 86.6468 99.2696 86.199C98.6364 85.7192 98.3047 84.9835 98.2746 83.992L97.5962 63.0248C97.566 62.0012 97.8675 61.1216 98.5007 60.3859C99.164 59.6182 100.219 59.2344 101.667 59.2344C103.023 59.2344 104.033 59.6182 104.697 60.3859C105.39 61.1216 105.737 62.0012 105.737 63.0248L104.968 83.992ZM97.2344 93.1561C97.2344 94.4995 97.6565 95.5071 98.5007 96.1788C99.3751 96.8825 100.445 97.2344 101.712 97.2344C102.978 97.2344 104.048 96.8825 104.923 96.1788C105.797 95.5071 106.234 94.4995 106.234 93.1561C106.234 91.8127 105.797 90.7891 104.923 90.0854C104.048 89.3817 102.978 89.0298 101.712 89.0298C100.445 89.0298 99.3751 89.3817 98.5007 90.0854C97.6565 90.7891 97.2344 91.8127 97.2344 93.1561Z" fill="black"/>
<path d="M230.234 142.234H192.234L209.031 82.2344H213.438L230.234 142.234Z" fill="url(#paint0_linear_992_12209)"/>
<path d="M219.035 102.234H203.432L206.23 92.2344H216.236L219.035 102.234Z" fill="url(#paint1_linear_992_12209)"/>
<path d="M224.637 122.234H197.834L200.634 112.234H221.837L224.637 122.234Z" fill="#D9D9D9"/>
<path d="M224.637 122.234H197.834L200.634 112.234H221.837L224.637 122.234Z" fill="url(#paint2_linear_992_12209)"/>
<path d="M230.234 142.234H192.234L195.034 132.234H227.435L230.234 142.234Z" fill="url(#paint3_linear_992_12209)"/>
<path d="M230.234 142.234V142.734H230.894L230.716 142.1L230.234 142.234ZM192.234 142.234L191.753 142.1L191.575 142.734H192.234V142.234ZM209.031 82.2344V81.7344H208.652L208.55 82.0996L209.031 82.2344ZM213.438 82.2344L213.919 82.0996L213.817 81.7344H213.438V82.2344ZM230.234 142.234V141.734H192.234V142.234V142.734H230.234V142.234ZM192.234 142.234L192.716 142.369L209.513 82.3692L209.031 82.2344L208.55 82.0996L191.753 142.1L192.234 142.234ZM209.031 82.2344V82.7344H213.438V82.2344V81.7344H209.031V82.2344ZM213.438 82.2344L212.956 82.3692L229.753 142.369L230.234 142.234L230.716 142.1L213.919 82.0996L213.438 82.2344Z" fill="#7E3200"/>
<rect x="185.234" y="142.234" width="52" height="4" rx="1" fill="url(#paint4_linear_992_12209)" stroke="#7E3200"/>
<defs>
<linearGradient id="paint0_linear_992_12209" x1="192.234" y1="112.234" x2="230.234" y2="112.234" gradientUnits="userSpaceOnUse">
<stop stop-color="#FF6600"/>
<stop offset="1" stop-color="#9B3E00"/>
</linearGradient>
<linearGradient id="paint1_linear_992_12209" x1="203.432" y1="97.2344" x2="219.035" y2="97.2344" gradientUnits="userSpaceOnUse">
<stop stop-color="white"/>
<stop offset="0.385" stop-color="white"/>
<stop offset="1" stop-color="#C2C2C2"/>
</linearGradient>
<linearGradient id="paint2_linear_992_12209" x1="197.834" y1="117.234" x2="224.637" y2="117.234" gradientUnits="userSpaceOnUse">
<stop stop-color="white"/>
<stop offset="0.385" stop-color="white"/>
<stop offset="1" stop-color="#C2C2C2"/>
</linearGradient>
<linearGradient id="paint3_linear_992_12209" x1="192.234" y1="137.234" x2="230.234" y2="137.234" gradientUnits="userSpaceOnUse">
<stop stop-color="white"/>
<stop offset="0.385" stop-color="white"/>
<stop offset="1" stop-color="#C2C2C2"/>
</linearGradient>
<linearGradient id="paint4_linear_992_12209" x1="185.234" y1="144.234" x2="237.234" y2="144.234" gradientUnits="userSpaceOnUse">
<stop stop-color="#FF6600"/>
<stop offset="1" stop-color="#993D00"/>
</linearGradient>
</defs>
</svg>
