<svg width="48" height="48" viewBox="0 0 48 48" fill="none" xmlns="http://www.w3.org/2000/svg">
<rect width="48" height="48" rx="24" fill="#E2E6E9"/>
<path d="M27.333 24C29.4684 24 31.422 24.7741 32.9326 26.0547C32.6266 26.0192 32.3155 26 32 26C31.4367 26 30.8869 26.0582 30.3564 26.1689C29.4376 25.7407 28.4136 25.5 27.333 25.5H18.667C14.709 25.5 11.5 28.709 11.5 32.667C11.5002 34.2315 12.7685 35.4998 14.333 35.5H24.1416C24.2402 36.0198 24.3901 36.5211 24.584 37H14.333C12.0147 36.9998 10.1219 35.1791 10.0059 32.8896L10 32.667C10 28.0301 13.6415 24.2438 18.2207 24.0117L18.667 24H27.333Z" fill="#A0A8B5"/>
<circle cx="23" cy="16" r="6.25" stroke="#A0A8B5" stroke-width="1.5"/>
<circle cx="32" cy="34" r="5.25" stroke="#A0A8B5" stroke-width="1.5"/>
<path d="M32 32V36" stroke="#A0A8B5" stroke-width="1.5" stroke-linecap="round"/>
<path d="M34 34L30 34" stroke="#A0A8B5" stroke-width="1.5" stroke-linecap="round"/>
</svg>
