<svg width="24" height="24" viewBox="0 0 24 24" fill="none" xmlns="http://www.w3.org/2000/svg">
<mask id="path-1-inside-1_684_7977" fill="white">
<path d="M12.1716 2C12.702 2 13.2107 2.21071 13.5858 2.58579L19.4142 8.41421C19.7893 8.78929 20 9.29799 20 9.82843V20C20 21.1046 19.1046 22 18 22H6C4.89543 22 4 21.1046 4 20V4C4 2.89543 4.89543 2 6 2H12.1716Z"/>
</mask>
<path d="M20 20H21.5V20H20ZM4 20H2.5H4ZM4 4L2.5 4V4H4ZM19.4142 8.41421L18.3536 9.47487L19.4142 8.41421ZM13.5858 2.58579L14.6464 1.52513L13.5858 2.58579ZM13.5858 2.58579L12.5251 3.64645L18.3536 9.47487L19.4142 8.41421L20.4749 7.35355L14.6464 1.52513L13.5858 2.58579ZM20 9.82843H18.5V20H20H21.5V9.82843H20ZM20 20H18.5C18.5 20.2761 18.2761 20.5 18 20.5V22V23.5C19.933 23.5 21.5 21.933 21.5 20H20ZM18 22V20.5H6V22V23.5H18V22ZM6 22V20.5C5.72386 20.5 5.5 20.2761 5.5 20H4H2.5C2.5 21.933 4.067 23.5 6 23.5V22ZM4 20H5.5V4H4H2.5V20H4ZM4 4L5.5 4C5.5 3.72386 5.72386 3.5 6 3.5V2V0.5C4.067 0.5 2.5 2.067 2.5 4L4 4ZM6 2V3.5H12.1716V2V0.5H6V2ZM19.4142 8.41421L18.3536 9.47487C18.4473 9.56864 18.5 9.69582 18.5 9.82843H20H21.5C21.5 8.90017 21.1313 8.00993 20.4749 7.35355L19.4142 8.41421ZM13.5858 2.58579L14.6464 1.52513C13.9901 0.868749 13.0998 0.5 12.1716 0.5V2V3.5C12.3042 3.5 12.4314 3.55268 12.5251 3.64645L13.5858 2.58579Z" fill="white" mask="url(#path-1-inside-1_684_7977)"/>
<path d="M12.001 9.5V16M12.001 16L9.35938 13.3574M12.001 16L14.6426 13.3574" stroke="white" stroke-width="1.5" stroke-linecap="round"/>
</svg>
