<svg width="30" height="30" viewBox="0 0 30 30" fill="none" xmlns="http://www.w3.org/2000/svg">
<path d="M13.667 14.75H16.333C18.4961 14.75 20.25 16.5039 20.25 18.667C20.2498 19.5412 19.5412 20.2498 18.667 20.25H11.333C10.4588 20.2498 9.75018 19.5412 9.75 18.667C9.75 16.5039 11.5039 14.75 13.667 14.75Z" stroke="white" stroke-width="1.5"/>
<circle cx="15" cy="9" r="3.25" stroke="white" stroke-width="1.5"/>
<path d="M8.1748 20.0029C8.39378 20.6197 8.80662 21.1439 9.34277 21.5H8.33301C7.32074 21.5002 6.50018 22.3207 6.5 23.333C6.5 23.4251 6.57494 23.5 6.66699 23.5H11.333C11.4251 23.5 11.5 23.4251 11.5 23.333C11.4999 22.8055 11.2757 22.3315 10.9189 21.9971C10.9459 21.9978 10.9729 22 11 22H12.7197C12.8984 22.4085 13 22.8587 13 23.333C13 24.2535 12.2535 25 11.333 25H6.66699L6.49609 24.9912C5.65575 24.9058 5 24.1959 5 23.333C5.00017 21.5453 6.40756 20.0857 8.1748 20.0029Z" fill="white"/>
<path d="M21.8379 20.0039C23.5992 20.093 24.9998 21.5496 25 23.333C25 24.2535 24.2535 25 23.333 25H18.667L18.4961 24.9912C17.6558 24.9058 17 24.1959 17 23.333C17 22.8589 17.0999 22.4083 17.2783 22H19C19.0268 22 19.0535 21.9978 19.0801 21.9971C18.7237 22.3315 18.5001 22.8057 18.5 23.333C18.5 23.4251 18.5749 23.5 18.667 23.5H23.333C23.4251 23.5 23.5 23.4251 23.5 23.333C23.4998 22.3207 22.6793 21.5002 21.667 21.5H20.6572C21.1933 21.1439 21.6052 20.6196 21.8242 20.0029L21.8379 20.0039Z" fill="white"/>
<path d="M21 13.5C22.6569 13.5 24 14.8431 24 16.5C24 17.8124 23.1562 18.9249 21.9824 19.332C21.9944 19.223 22.002 19.1123 22.002 19C22.002 18.5622 21.9533 18.1358 21.8643 17.7246C22.2484 17.453 22.5 17.0063 22.5 16.5C22.5 15.6716 21.8284 15 21 15C20.8381 15 20.6822 15.0258 20.5361 15.0732C20.1837 14.6666 19.779 14.3066 19.3301 14.0068C19.8074 13.6865 20.382 13.5 21 13.5Z" fill="white"/>
<path d="M9 13.5C9.61821 13.5 10.1925 13.6873 10.6699 14.0078C10.2214 14.3076 9.81602 14.6668 9.46387 15.0732C9.31778 15.0258 9.16191 15 9 15C8.17157 15 7.5 15.6716 7.5 16.5C7.5 17.0068 7.75191 17.454 8.13672 17.7256C8.04785 18.1364 8 18.5626 8 19C8 19.1122 8.00655 19.223 8.01855 19.332C6.84429 18.9251 6 17.8127 6 16.5C6 14.8431 7.34315 13.5 9 13.5Z" fill="white"/>
</svg>
