<svg width="18" height="18" viewBox="0 0 18 18" fill="none" xmlns="http://www.w3.org/2000/svg">
<path fill-rule="evenodd" clip-rule="evenodd" d="M10.6155 16H6.38547C4.48448 15.9677 2.96928 14.401 3.00047 12.5V9C2.98314 7.42628 4.02358 6.03658 5.53847 5.61V5.15C5.48798 3.46276 6.81332 2.0533 8.50047 2C10.1876 2.0533 11.513 3.46276 11.4625 5.15V5.61C12.9774 6.03658 14.0178 7.42628 14.0005 9V12.5C14.0317 14.401 12.5165 15.9677 10.6155 16Z" stroke="black" stroke-width="1.5" stroke-linecap="round" stroke-linejoin="round"/>
<path d="M7.75049 12.4998C7.75049 12.914 8.08627 13.2498 8.50049 13.2498C8.9147 13.2498 9.25049 12.914 9.25049 12.4998H8.50049H7.75049ZM9.25049 10.7498C9.25049 10.3356 8.9147 9.99983 8.50049 9.99983C8.08627 9.99983 7.75049 10.3356 7.75049 10.7498H8.50049H9.25049ZM11.2701 6.3344C11.6704 6.44069 12.0811 6.20232 12.1874 5.80197C12.2937 5.40163 12.0554 4.99092 11.655 4.88463L11.4626 5.60951L11.2701 6.3344ZM10.6166 5.49951V6.24951L10.6172 6.24951L10.6166 5.49951ZM6.38555 5.49951L6.38486 6.24951H6.38555V5.49951ZM5.34709 4.88463C4.94675 4.99092 4.70837 5.40163 4.81467 5.80197C4.92096 6.20232 5.33167 6.44069 5.73201 6.3344L5.53955 5.60951L5.34709 4.88463ZM8.50049 12.4998H9.25049V10.7498H8.50049H7.75049V12.4998H8.50049ZM11.4626 5.60951L11.655 4.88463C11.316 4.79461 10.9666 4.74919 10.6159 4.74951L10.6166 5.49951L10.6172 6.24951C10.8376 6.24931 11.0571 6.27785 11.2701 6.3344L11.4626 5.60951ZM10.6166 5.49951V4.74951H6.38555V5.49951V6.24951H10.6166V5.49951ZM6.38555 5.49951L6.38624 4.74951C6.03546 4.74919 5.68613 4.79461 5.34709 4.88463L5.53955 5.60951L5.73201 6.3344C5.94501 6.27785 6.16448 6.24931 6.38486 6.24951L6.38555 5.49951Z" fill="black"/>
</svg>
