<svg width="24" height="24" viewBox="0 0 24 24" fill="none" xmlns="http://www.w3.org/2000/svg">
<path d="M9.99951 1.95361C5.58121 1.95334 1.99939 5.53513 1.99903 9.95313C1.99876 14.3711 5.58024 17.9534 9.99854 17.9536C11.8352 17.9537 13.559 17.3048 14.9094 16.2639L19.2796 20.6732C19.6701 21.0632 20.3266 21.0632 20.7172 20.6733C21.1077 20.2823 21.1077 19.6263 20.7173 19.2353L16.3115 14.859C17.3524 13.5091 17.9989 11.7911 17.999 9.9541C17.9993 5.5361 14.4178 1.95388 9.99951 1.95361ZM9.99939 3.95361C13.3131 3.95381 15.9991 6.63998 15.999 9.95398C15.9988 13.268 13.3124 15.9538 9.99866 15.9536C6.68496 15.9534 3.99892 13.2673 3.99903 9.95325C3.99923 6.63925 6.68569 3.95341 9.99939 3.95361Z" fill="white"/>
</svg>
