<svg width="30" height="30" viewBox="0 0 30 30" fill="none" xmlns="http://www.w3.org/2000/svg">
<path d="M23.25 13.25V22C23.25 23.2426 22.2426 24.25 21 24.25H9C7.75736 24.25 6.75 23.2426 6.75 22V13.25H23.25Z" stroke="#4A5476" stroke-width="1.5"/>
<mask id="path-2-inside-1_15_1725" fill="white">
<path d="M5 10C5 8.89543 5.89543 8 7 8H23C24.1046 8 25 8.89543 25 10V13C25 13.5523 24.5523 14 24 14H6C5.44772 14 5 13.5523 5 13V10Z"/>
</mask>
<path d="M5 10C5 8.89543 5.89543 8 7 8H23C24.1046 8 25 8.89543 25 10V13C25 13.5523 24.5523 14 24 14H6C5.44772 14 5 13.5523 5 13V10Z" stroke="#4A5476" stroke-width="3" mask="url(#path-2-inside-1_15_1725)"/>
<mask id="path-3-inside-2_15_1725" fill="white">
<rect x="12" y="10.5" width="6" height="5.5" rx="1"/>
</mask>
<rect x="12" y="10.5" width="6" height="5.5" rx="1" stroke="#4A5476" stroke-width="3" mask="url(#path-3-inside-2_15_1725)"/>
<path d="M13 5.75H17C17.6904 5.75 18.25 6.30964 18.25 7V8.25H11.75V7C11.75 6.30964 12.3096 5.75 13 5.75Z" stroke="#4A5476" stroke-width="1.5"/>
</svg>
