<svg width="30" height="30" viewBox="0 0 30 30" fill="none" xmlns="http://www.w3.org/2000/svg">
<path d="M15 5.75C17.143 5.75 19.0498 6.07714 20.3936 6.58105C21.0682 6.83404 21.5623 7.11719 21.874 7.39355C22.1865 7.67062 22.25 7.87732 22.25 8C22.25 8.12268 22.1865 8.32938 21.874 8.60645C21.5623 8.88281 21.0682 9.16596 20.3936 9.41895C19.0498 9.92286 17.143 10.25 15 10.25C12.857 10.25 10.9502 9.92286 9.60645 9.41895C8.93183 9.16596 8.43769 8.88281 8.12598 8.60645C7.81354 8.32938 7.75 8.12268 7.75 8C7.75 7.87732 7.81354 7.67062 8.12598 7.39355C8.43769 7.11719 8.93183 6.83404 9.60645 6.58105C10.9502 6.07714 12.857 5.75 15 5.75Z" stroke="white" stroke-width="1.5"/>
<line x1="7.75" y1="8" x2="7.75" y2="22" stroke="white" stroke-width="1.5"/>
<line x1="22.25" y1="8" x2="22.25" y2="22" stroke="white" stroke-width="1.5"/>
<path d="M23 11.5C23 13.1569 19.4183 14.5 15 14.5C10.5817 14.5 7 13.1569 7 11.5H8.5791C8.5928 11.5133 8.60654 11.5294 8.62402 11.5449C8.84266 11.7388 9.24467 11.9823 9.87012 12.2168C11.1099 12.6817 12.9232 13 15 13C17.0768 13 18.8901 12.6817 20.1299 12.2168C20.7553 11.9823 21.1573 11.7388 21.376 11.5449C21.3932 11.5296 21.4064 11.5131 21.4199 11.5H23Z" fill="white"/>
<path d="M22.9893 15.1523C22.775 16.7375 19.2802 17.998 15 17.998C10.5835 17.998 7.00281 16.656 7 15H8.58105C8.59411 15.0129 8.60738 15.0282 8.62402 15.043C8.84266 15.2368 9.24467 15.4803 9.87012 15.7148C11.1099 16.1797 12.9232 16.498 15 16.498C17.0768 16.498 18.8901 16.1797 20.1299 15.7148C20.7553 15.4803 21.1573 15.2368 21.376 15.043C21.3924 15.0284 21.4051 15.0128 21.418 15H23L22.9893 15.1523Z" fill="white"/>
<path d="M23 18.5C23 20.1569 19.4183 21.5 15 21.5C10.5817 21.5 7 20.1569 7 18.5H8.5791C8.5928 18.5133 8.60654 18.5294 8.62402 18.5449C8.84266 18.7388 9.24467 18.9823 9.87012 19.2168C11.1099 19.6817 12.9232 20 15 20C17.0768 20 18.8901 19.6817 20.1299 19.2168C20.7553 18.9823 21.1573 18.7388 21.376 18.5449C21.3932 18.5296 21.4064 18.5131 21.4199 18.5H23Z" fill="white"/>
<path d="M22.9893 22.1523C22.775 23.7375 19.2802 24.998 15 24.998C10.5835 24.998 7.00281 23.656 7 22H8.58105C8.59411 22.0129 8.60738 22.0282 8.62402 22.043C8.84266 22.2368 9.24467 22.4803 9.87012 22.7148C11.1099 23.1797 12.9232 23.498 15 23.498C17.0768 23.498 18.8901 23.1797 20.1299 22.7148C20.7553 22.4803 21.1573 22.2368 21.376 22.043C21.3924 22.0284 21.4051 22.0128 21.418 22H23L22.9893 22.1523Z" fill="white"/>
</svg>
