<svg width="30" height="30" viewBox="0 0 30 30" fill="none" xmlns="http://www.w3.org/2000/svg">
<path d="M12 16.75H18C20.8995 16.75 23.25 19.1005 23.25 22C23.25 23.2426 22.2426 24.25 21 24.25H9C7.75736 24.25 6.75 23.2426 6.75 22C6.75 19.1005 9.10051 16.75 12 16.75Z" stroke="#4A5476" stroke-width="1.5"/>
<circle cx="15" cy="10" r="4.25" stroke="#4A5476" stroke-width="1.5"/>
<path d="M13 19.191V18.5C13 18.2239 13.2239 18 13.5 18H16.5C16.7761 18 17 18.2239 17 18.5V19.191C17 19.3804 16.893 19.5535 16.7236 19.6382L15.2236 20.3882C15.0828 20.4586 14.9172 20.4586 14.7764 20.3882L13.2764 19.6382C13.107 19.5535 13 19.3804 13 19.191Z" fill="#4A5476"/>
<path d="M13.2743 23.3143L14.5358 20.1606C14.7034 19.7415 15.2966 19.7415 15.4642 20.1606L16.7257 23.3143C16.8571 23.6427 16.6152 24 16.2615 24H13.7385C13.3848 24 13.1429 23.6427 13.2743 23.3143Z" fill="#4A5476"/>
</svg>
