<svg width="30" height="30" viewBox="0 0 30 30" fill="none" xmlns="http://www.w3.org/2000/svg">
<path d="M5.75 5.75L5.75 24.6569" stroke="white" stroke-width="1.5" stroke-linecap="round"/>
<line x1="24.25" y1="24.75" x2="5.75" y2="24.75" stroke="white" stroke-width="1.5" stroke-linecap="round"/>
<path d="M7 14.25H10.5C11.1904 14.25 11.75 14.8096 11.75 15.5V24.75H5.75V15.5C5.75 14.8096 6.30964 14.25 7 14.25Z" stroke="white" stroke-width="1.5"/>
<path d="M13 10.25H17C17.6904 10.25 18.25 10.8096 18.25 11.5V24.75H11.75V11.5C11.75 10.8096 12.3096 10.25 13 10.25Z" stroke="white" stroke-width="1.5"/>
<path d="M19.5 6.25H23C23.6904 6.25 24.25 6.80964 24.25 7.5V24.75H18.25V7.5C18.25 6.80964 18.8096 6.25 19.5 6.25Z" stroke="white" stroke-width="1.5"/>
</svg>
