<svg width="48" height="48" viewBox="0 0 48 48" fill="none" xmlns="http://www.w3.org/2000/svg">
<rect width="48" height="48" rx="24" fill="#E2E6E9"/>
<path d="M18.333 25.75H23.667C27.3026 25.7502 30.2498 28.6974 30.25 32.333C30.25 33.9438 28.9438 35.25 27.333 35.25H14.667C13.0562 35.25 11.75 33.9438 11.75 32.333C11.7502 28.6974 14.6974 25.7502 18.333 25.75Z" stroke="#A0A8B5" stroke-width="1.5"/>
<path d="M30.0439 25.0098C33.9186 25.2061 36.9998 28.4096 37 32.333C37 34.3581 35.3581 36 33.333 36H29.333C30.5474 36 31.6237 35.4093 32.291 34.5H33.333C34.5296 34.5 35.5 33.5296 35.5 32.333C35.4998 29.2691 33.1374 26.759 30.1348 26.5205C28.8975 25.5681 27.349 25.0001 25.667 25H29.667L30.0439 25.0098Z" fill="#A0A8B5"/>
<circle cx="21" cy="18" r="5.25" stroke="#A0A8B5" stroke-width="1.5"/>
<path d="M27 12C30.3137 12 33 14.6863 33 18C33 21.3137 30.3137 24 27 24C26.2986 24 25.6257 23.8784 25 23.6572C25.7314 23.3987 26.3968 23.002 26.9668 22.499C26.9779 22.4991 26.9889 22.5 27 22.5C29.4853 22.5 31.5 20.4853 31.5 18C31.5 15.5147 29.4853 13.5 27 13.5C26.9889 13.5 26.9779 13.4999 26.9668 13.5C26.3968 12.9972 25.7313 12.6003 25 12.3418C25.6256 12.1207 26.2987 12 27 12Z" fill="#A0A8B5"/>
</svg>
