<svg width="300" height="40" viewBox="0 0 300 40" fill="none" xmlns="http://www.w3.org/2000/svg">
<g clip-path="url(#clip0_15_1842)">
<g clip-path="url(#clip1_15_1842)">
<path d="M19.8351 7.97656C19.8351 7.97656 17.8096 15.8314 17.4362 17.2723C16.1146 22.368 13.3476 25.2163 9.49253 25.2411C6.92573 25.2572 5.95281 23.2723 6.76322 19.5712C6.76322 19.5712 8.99532 10.311 9.47209 8.3357C9.51621 8.15183 9.3763 7.97764 9.18796 7.97764H3.08466C3.08466 7.97764 1.59839 14.1077 0.630858 17.8056C-1.15999 24.6529 0.855791 30.0067 6.83317 30.4185C10.0533 30.64 12.8536 29.0647 14.9802 27.0077L15.0857 27.0185C13.8577 31.168 11.7838 33.469 7.70384 34.2486C6.14438 34.5465 3.91228 34.2862 2.2904 33.4411C2.14619 33.3658 1.97076 33.4389 1.93094 33.597L0.455433 39.4561C2.02996 39.9357 4.92501 40.2443 8.03317 39.754C13.4918 38.8927 20.0579 34.783 22.2792 25.2776L26.4432 8.34753C26.4894 8.16043 26.3474 7.97979 26.1536 7.97871H19.8373L19.8351 7.97656Z" fill="#060000"/>
<path d="M111.709 23.4213H106.471L110.511 8.34069C110.56 8.15574 110.421 7.9751 110.23 7.9751H104.777L100.559 23.4213H95.9536L100.034 8.34391C100.085 8.15897 99.9464 7.9751 99.7538 7.9751H94.4114C94.4114 7.9751 90.4498 22.3213 89.8342 24.5009C87.6075 32.3858 82.6471 29.0708 79.9275 28.3966C84.0893 25.8719 87.2039 22.7891 88.7311 18.417C89.958 14.9031 89.5167 11.0568 86.9897 8.83639C84.5402 6.6837 81.5763 6.26004 78.7673 6.64821C75.5494 7.09338 72.5176 9.12671 70.9829 11.6224L74.0954 15.5117C74.2084 15.6525 74.4312 15.631 74.5098 15.4676C75.2298 13.9686 76.5976 12.5762 77.972 12.1084C79.5691 11.5654 81.3191 11.6084 82.4975 12.7547C83.6448 13.8697 83.7363 16.3418 82.4502 18.731C80.2837 22.7536 74.202 26.8504 69.1846 28.6901L71.4651 34.1117C71.5275 34.259 71.7126 34.3127 71.8396 34.2149C73.1472 33.2074 75.3159 32.7407 76.9399 32.8762C80.4452 33.1697 81.2373 34.2461 84.4703 34.6342C89.2358 35.2063 92.8379 32.5482 94.3371 28.2289L99.2221 28.2579L96.651 37.6385C96.5994 37.8235 96.7382 38.0074 96.9308 38.0074H102.546L105.154 28.2891L110.802 28.3192L111.989 23.7837C112.038 23.5998 111.899 23.4192 111.709 23.4192V23.4213Z" fill="#060000"/>
<path d="M60.9361 17.9439C58.1745 16.5923 56.2642 15.3557 56.4913 13.6353C56.6441 12.4772 58.0604 11.6245 60.2054 11.8202C61.541 11.9428 62.6893 12.5686 63.7677 13.5482C64.3865 14.1106 65.0624 14.9149 65.4681 15.6181C65.5489 15.7579 65.7404 15.7804 65.8545 15.6665L69.7881 11.76C67.062 7.97614 63.9797 6.6127 59.8061 6.51915C56.388 6.44281 52.5814 7.59335 50.9337 11.1632C49.9758 13.2396 49.9134 16.0858 52.1175 18.6761C53.24 19.9955 55.0987 21.374 57.4233 22.503C60.4938 23.9933 61.8305 25.1116 61.6109 26.6976C61.2881 29.0331 58.9257 29.7159 56.8884 29.4471C53.7964 29.0407 51.7398 27.2987 52.0777 24.146L46.1692 22.5417C46.025 22.503 45.884 22.5998 45.8592 22.7471C45.7398 23.4546 45.4309 24.2224 45.0273 24.8966C43.2989 27.7826 39.7785 29.8385 35.9181 29.0224C31.0826 28.0009 30.1656 23.16 31.7875 17.9159C33.4137 12.66 39.3104 10.3794 41.4112 11.845C42.9771 12.9364 42.4497 15.3589 40.8989 17.0407C39.3211 18.7503 36.3518 19.7342 33.2673 19.7933C33.0338 19.7976 32.9004 20.0622 33.0284 20.2568L35.5134 23.9557C42.0806 23.9804 47.6673 19.4353 48.3755 15.3116C49.0287 11.5106 47.2691 8.28582 43.5679 7.05786C40.9635 6.19442 37.3818 6.55356 34.5168 7.68044C30.5004 9.26109 27.1468 12.7632 25.7854 16.9342C24.0215 22.3396 24.5908 26.974 27.0155 30.1557C28.9011 32.631 31.724 34.488 36.0666 34.6665C40.5179 34.8493 44.8809 33.2944 47.6286 30.0482C48.7758 32.0482 52.3672 34.4546 56.8002 34.6611C63.7214 34.9815 67.8219 31.1923 68.2341 26.7417C68.5989 22.8009 65.5144 20.1837 60.9361 17.9428V17.9439Z" fill="#060000"/>
<path d="M11.2819 6.74301C13.006 6.74301 13.6743 5.43118 14.1134 3.37097C14.5396 1.36667 14.4417 0 12.7165 0C10.9924 0 10.3122 1.36667 9.88491 3.37204C9.44689 5.43118 9.55774 6.74409 11.2819 6.74409V6.74301Z" fill="#0080FF"/>
<path d="M17.8859 6.74301C19.61 6.74301 20.2783 5.43118 20.7174 3.37097C21.1436 1.36667 21.0446 0 19.3205 0C17.5964 0 16.9162 1.36667 16.4889 3.37204C16.0509 5.43118 16.1617 6.74409 17.8859 6.74409V6.74301Z" fill="#0080FF"/>
</g>
<line x1="133.5" y1="8" x2="133.5" y2="32" stroke="black" stroke-width="3"/>
<g clip-path="url(#clip2_15_1842)">
<path d="M277.239 18.1132C276.643 20.6387 275.218 22.427 272.867 22.427C270.517 22.427 269.107 20.7838 269.107 17.7995C269.123 15.733 269.538 13.6894 270.327 11.7838C271.253 9.58775 272.716 8.125 274.862 8.125C277.317 8.125 278.347 9.88186 278.165 12.3877L275.338 13.0975C275.504 11.8466 275.462 10.7172 274.637 10.7172C273.812 10.7172 273.255 11.6779 272.701 13.8544C272.328 15.2467 272.107 16.6761 272.043 18.1172C272.043 19.1799 272.372 19.827 273.096 19.827C273.959 19.827 274.354 18.7015 274.602 17.4034L277.239 18.1132Z" fill="black"/>
<path d="M282.919 7.5L280.836 19.5314C280.802 19.6888 280.781 19.8488 280.774 20.0098C280.774 20.2412 280.898 20.3667 281.084 20.3667C281.219 20.3606 281.351 20.3244 281.471 20.2608L281.161 22.0569C280.755 22.2742 280.3 22.3822 279.841 22.3706C278.501 22.3706 277.862 21.6176 277.862 20.4098C277.863 20.127 277.896 19.8452 277.963 19.5706L280.046 7.5H282.919Z" fill="black"/>
<path d="M286.614 11.6758L285.375 18.7346C285.343 18.9078 285.328 19.0839 285.332 19.2601C285.332 19.7581 285.518 20.0444 285.971 20.0444C286.529 20.0444 286.982 19.4797 287.191 18.3072L288.326 11.6875H291.234L289.871 19.5307C289.836 19.6881 289.816 19.8481 289.809 20.0091C289.809 20.2405 289.913 20.366 290.118 20.366C290.254 20.3599 290.386 20.3237 290.506 20.2601L290.196 22.0562C289.796 22.2713 289.348 22.3792 288.895 22.3699C287.764 22.3699 287.164 21.7856 287.083 20.8013C287.083 20.6954 287.102 20.4679 287.102 20.3621C286.649 21.6562 285.781 22.4091 284.542 22.4091C283.303 22.4091 282.358 21.5307 282.358 19.9856C282.357 19.6986 282.385 19.4122 282.44 19.1307L283.741 11.6797L286.614 11.6758Z" fill="black"/>
<path d="M297.584 11.5078C299.109 11.5078 299.996 12.8686 299.996 15.0176C299.996 16.6464 299.673 18.2585 299.047 19.7588C298.408 21.3275 297.316 22.4137 295.977 22.4137C295.47 22.4186 294.981 22.2299 294.606 21.8853C294.232 21.5407 293.999 21.0656 293.955 20.5549L293.355 22.2451H291.032L293.591 7.5H296.48L295.489 13.2412C295.826 12.2412 296.6 11.5078 297.584 11.5078ZM295.051 15.6451C294.808 16.7961 294.628 17.96 294.513 19.1314C294.513 19.7588 294.761 20.1784 295.287 20.1784C295.965 20.1784 296.379 19.2804 296.728 17.8804C296.948 17.0059 297.066 16.1083 297.08 15.2059C297.08 14.3078 296.794 13.849 296.275 13.849C295.647 13.8294 295.233 14.5784 295.051 15.6451Z" fill="black"/>
<path d="M163.884 7.73127C161.011 8.21755 156.263 10.2803 153.716 14.8607C151.338 19.0999 151.679 24.1117 153.328 27.0724C154.916 29.9313 157.774 31.5038 160.403 32.1156C162.726 32.6528 167.334 33.045 170.622 30.6019L169.77 26.0136C169.763 25.9769 169.747 25.9425 169.723 25.9138C169.699 25.8851 169.669 25.863 169.634 25.8497C169.6 25.8363 169.562 25.8321 169.526 25.8375C169.489 25.8428 169.455 25.8576 169.425 25.8803C167.656 27.2097 163.93 28.2372 161.17 27.0175C157.142 25.2568 157.073 20.1313 158.846 16.743C161.29 12.1274 165.739 12.1901 167.791 12.6215C169.387 12.9353 170.815 13.831 171.803 15.1391C171.823 15.1667 171.849 15.1891 171.879 15.2045C171.91 15.22 171.943 15.228 171.977 15.228C172.011 15.228 172.044 15.22 172.074 15.2045C172.105 15.1891 172.131 15.1667 172.151 15.1391L175.017 11.4489C171.915 6.90382 166.246 7.3352 163.884 7.73127Z" fill="black"/>
<path d="M206.041 25.4505C206.028 25.4176 206.008 25.3883 205.982 25.365C205.956 25.3417 205.924 25.3251 205.891 25.3167C205.857 25.3082 205.821 25.3081 205.788 25.3164C205.754 25.3247 205.722 25.3411 205.696 25.3642C203.532 27.274 199.381 28.1995 196.926 27.1525C192.871 25.427 192.627 21.2701 194.281 17.5486C196.484 12.5917 201.685 11.1956 203.698 12.7329C205.049 13.7603 204.624 15.7133 203.202 17.1799C201.63 18.7995 199.33 19.3839 195.803 19.5329C195.768 19.5334 195.734 19.5425 195.703 19.5595C195.673 19.5764 195.647 19.6006 195.628 19.63C195.609 19.6594 195.597 19.6931 195.594 19.7281C195.591 19.7631 195.596 19.7984 195.609 19.8309L197.111 23.729C203.915 24.3564 208.593 20.5603 209.774 16.4113C210.827 12.7172 209.193 9.68189 206.262 8.36032C204.085 7.37601 201.379 7.29366 198.726 7.93679C195.566 8.7015 190.982 11.5995 189.046 15.8897C186.947 20.5289 187.292 24.4584 189.088 27.5564C190.587 30.1407 193.735 31.7721 196.391 32.2623C198.347 32.6573 200.363 32.6325 202.308 32.1894C204.254 31.7462 206.086 30.8947 207.686 29.6897L206.041 25.4505Z" fill="black"/>
<path d="M239.481 10.2203C238.765 8.87132 236.879 7.54976 234.583 7.53799C231.779 7.53799 229.669 8.82819 228.077 10.1027C227.4 9.19289 226.397 7.74976 223.222 7.52623C217.801 7.16544 213.743 10.5811 212.817 14.44C211.892 18.2988 208.666 31.6949 208.666 31.6949C208.658 31.7272 208.657 31.7611 208.664 31.7939C208.67 31.8266 208.684 31.8574 208.704 31.8839C208.725 31.9104 208.75 31.9318 208.78 31.9467C208.81 31.9615 208.842 31.9692 208.875 31.9694H214.339C214.339 31.9694 217.847 17.338 218.277 15.589C218.465 14.8226 218.89 14.1374 219.491 13.6341C220.092 13.1308 220.836 12.8359 221.615 12.7929C223.683 12.8125 223.667 14.6949 223.388 15.8635L219.543 31.6831C219.535 31.7158 219.534 31.75 219.541 31.7831C219.548 31.8161 219.562 31.8471 219.583 31.8737C219.603 31.9002 219.63 31.9216 219.66 31.9362C219.69 31.9507 219.723 31.9581 219.756 31.9576H225.15C225.15 31.9576 228.635 17.5341 229.057 15.8164C229.522 13.8988 230.846 12.789 232.259 12.789C234.424 12.789 234.42 14.8203 234.157 15.8635L230.285 31.687C230.278 31.7194 230.278 31.7529 230.286 31.7851C230.293 31.8174 230.307 31.8475 230.328 31.8734C230.348 31.8993 230.374 31.9203 230.403 31.9349C230.433 31.9494 230.465 31.9572 230.498 31.9576H235.961L239.868 15.487C240.256 13.5968 240.345 11.8517 239.481 10.2203Z" fill="black"/>
<path d="M261.584 26.7766C261.827 25.7609 262.923 20.7844 263.64 18.0668C265.216 12.0825 261.704 7.74523 255.384 7.50994C252.104 7.40798 248.782 8.05896 245.487 10.9374C240.797 15.0668 239.454 22.0511 241.096 26.7139C242.257 29.9844 245.231 32.2354 249.142 32.4786C251.151 32.5705 253.133 31.9873 254.78 30.8197L253.27 26.8982C253.258 26.8672 253.24 26.8393 253.216 26.8167C253.192 26.794 253.163 26.7772 253.132 26.7673C253.1 26.7575 253.067 26.755 253.035 26.76C253.002 26.765 252.972 26.7774 252.945 26.7962C252.369 27.2257 251.709 27.5243 251.01 27.6719C250.31 27.8194 249.587 27.8123 248.89 27.6511C247.268 27.2001 246.052 25.7609 245.773 23.4511C245.458 20.9493 246.035 18.4155 247.4 16.306C249.839 12.659 252.821 12.2707 253.293 12.2001C256.193 11.7766 258.85 13.5923 258.118 17.2982C258.002 17.8825 256.015 26.4197 255.872 27.0197C255.098 30.2943 256.333 31.7256 256.979 32.4197L262.071 30.8511C262.105 30.8412 262.136 30.8234 262.161 30.7991C262.186 30.7749 262.206 30.7449 262.217 30.7116C262.229 30.6783 262.233 30.6426 262.228 30.6076C262.224 30.5725 262.211 30.5391 262.191 30.5099C261.509 29.3959 261.291 28.0535 261.584 26.7766Z" fill="black"/>
<path d="M177.677 31.9568L181.596 15.8353C182.064 13.9098 183.381 12.698 185.468 12.451C186.564 12.3762 187.646 12.733 188.488 13.447C188.51 13.4666 188.536 13.4814 188.564 13.4905C188.593 13.4995 188.622 13.5027 188.652 13.4998C188.681 13.4968 188.709 13.4879 188.735 13.4734C188.761 13.4589 188.784 13.4393 188.802 13.4157L191.834 9.36861C191.834 9.36861 188.968 6.72939 184.225 7.73723C180.856 8.45096 177.011 11.1725 176.24 14.4706C175.826 16.2196 172.074 31.6823 172.074 31.6823C172.066 31.7147 172.065 31.7486 172.071 31.7813C172.078 31.8141 172.092 31.8449 172.112 31.8714C172.132 31.8979 172.158 31.9193 172.188 31.9341C172.217 31.9489 172.25 31.9567 172.283 31.9568H177.677Z" fill="black"/>
</g>
</g>
<defs>
<clipPath id="clip0_15_1842">
<rect width="300" height="40" fill="white"/>
</clipPath>
<clipPath id="clip1_15_1842">
<rect width="112" height="40" fill="white"/>
</clipPath>
<clipPath id="clip2_15_1842">
<rect width="148" height="25" fill="white" transform="translate(152 7.5)"/>
</clipPath>
</defs>
</svg>
